<mxfile host="app.diagrams.net" modified="2023-12-01T17:53:43.124Z" agent="Mozilla/5.0 (Windows NT 10.0; Win64; x64; rv:120.0) Gecko/20100101 Firefox/120.0" etag="aJtmA0f5dJvS8Ivvai3a" version="22.1.5" type="device" pages="2">
  <diagram id="qcrZ8VK00H8OsS9XnC9L" name="Page-1">
    <mxGraphModel dx="2286" dy="1614" grid="0" gridSize="10" guides="1" tooltips="1" connect="1" arrows="1" fold="1" page="0" pageScale="1" pageWidth="1100" pageHeight="850" math="0" shadow="0">
      <root>
        <mxCell id="0" />
        <mxCell id="1" parent="0" />
        <mxCell id="c1X1VWXFr21yVhgGiJUy-2" value="Ime" style="ellipse;whiteSpace=wrap;html=1;" parent="1" vertex="1">
          <mxGeometry x="-440" y="285" width="108" height="43" as="geometry" />
        </mxCell>
        <mxCell id="c1X1VWXFr21yVhgGiJUy-3" value="Prezime" style="ellipse;whiteSpace=wrap;html=1;" parent="1" vertex="1">
          <mxGeometry x="-437" y="330" width="102" height="43" as="geometry" />
        </mxCell>
        <mxCell id="c1X1VWXFr21yVhgGiJUy-4" value="Telefon" style="ellipse;whiteSpace=wrap;html=1;" parent="1" vertex="1">
          <mxGeometry x="-412" y="373" width="100" height="46" as="geometry" />
        </mxCell>
        <mxCell id="4VKB-QzmZBHexOsbxEIB-14" value="" style="edgeStyle=orthogonalEdgeStyle;rounded=0;orthogonalLoop=1;jettySize=auto;html=1;" edge="1" parent="1" source="4VKB-QzmZBHexOsbxEIB-1" target="4VKB-QzmZBHexOsbxEIB-12">
          <mxGeometry relative="1" as="geometry" />
        </mxCell>
        <mxCell id="4VKB-QzmZBHexOsbxEIB-1" value="KORISNIK" style="rounded=0;whiteSpace=wrap;html=1;" vertex="1" parent="1">
          <mxGeometry x="-177" y="314" width="133" height="44" as="geometry" />
        </mxCell>
        <mxCell id="4VKB-QzmZBHexOsbxEIB-2" value="E-mail" style="ellipse;whiteSpace=wrap;html=1;" vertex="1" parent="1">
          <mxGeometry x="-416" y="237" width="100" height="46" as="geometry" />
        </mxCell>
        <mxCell id="4VKB-QzmZBHexOsbxEIB-3" value="Lozinka" style="ellipse;whiteSpace=wrap;html=1;" vertex="1" parent="1">
          <mxGeometry x="-381" y="419" width="100" height="46" as="geometry" />
        </mxCell>
        <mxCell id="4VKB-QzmZBHexOsbxEIB-7" value="" style="endArrow=none;html=1;rounded=0;exitX=1;exitY=1;exitDx=0;exitDy=0;entryX=0;entryY=0.5;entryDx=0;entryDy=0;" edge="1" parent="1" source="c1X1VWXFr21yVhgGiJUy-2" target="4VKB-QzmZBHexOsbxEIB-1">
          <mxGeometry width="50" height="50" relative="1" as="geometry">
            <mxPoint x="-118" y="507" as="sourcePoint" />
            <mxPoint x="-68" y="457" as="targetPoint" />
          </mxGeometry>
        </mxCell>
        <mxCell id="4VKB-QzmZBHexOsbxEIB-8" value="" style="endArrow=none;html=1;rounded=0;exitX=1;exitY=0.5;exitDx=0;exitDy=0;entryX=0;entryY=0.5;entryDx=0;entryDy=0;" edge="1" parent="1" source="c1X1VWXFr21yVhgGiJUy-3" target="4VKB-QzmZBHexOsbxEIB-1">
          <mxGeometry width="50" height="50" relative="1" as="geometry">
            <mxPoint x="-118" y="507" as="sourcePoint" />
            <mxPoint x="-68" y="457" as="targetPoint" />
          </mxGeometry>
        </mxCell>
        <mxCell id="4VKB-QzmZBHexOsbxEIB-9" value="" style="endArrow=none;html=1;rounded=0;exitX=1;exitY=0;exitDx=0;exitDy=0;entryX=0;entryY=0.5;entryDx=0;entryDy=0;" edge="1" parent="1" source="c1X1VWXFr21yVhgGiJUy-4" target="4VKB-QzmZBHexOsbxEIB-1">
          <mxGeometry width="50" height="50" relative="1" as="geometry">
            <mxPoint x="-118" y="507" as="sourcePoint" />
            <mxPoint x="-68" y="457" as="targetPoint" />
          </mxGeometry>
        </mxCell>
        <mxCell id="4VKB-QzmZBHexOsbxEIB-10" value="" style="endArrow=none;html=1;rounded=0;exitX=1;exitY=0;exitDx=0;exitDy=0;entryX=0;entryY=0.5;entryDx=0;entryDy=0;" edge="1" parent="1" source="4VKB-QzmZBHexOsbxEIB-3" target="4VKB-QzmZBHexOsbxEIB-1">
          <mxGeometry width="50" height="50" relative="1" as="geometry">
            <mxPoint x="-234" y="381" as="sourcePoint" />
            <mxPoint x="-175" y="352" as="targetPoint" />
          </mxGeometry>
        </mxCell>
        <mxCell id="4VKB-QzmZBHexOsbxEIB-11" value="" style="endArrow=none;html=1;rounded=0;entryX=1;entryY=1;entryDx=0;entryDy=0;exitX=0;exitY=0.5;exitDx=0;exitDy=0;" edge="1" parent="1" source="4VKB-QzmZBHexOsbxEIB-1" target="4VKB-QzmZBHexOsbxEIB-2">
          <mxGeometry width="50" height="50" relative="1" as="geometry">
            <mxPoint x="-118" y="507" as="sourcePoint" />
            <mxPoint x="-68" y="457" as="targetPoint" />
          </mxGeometry>
        </mxCell>
        <mxCell id="4VKB-QzmZBHexOsbxEIB-12" value="ZAKAZUJE" style="rounded=0;whiteSpace=wrap;html=1;" vertex="1" parent="1">
          <mxGeometry x="10" y="314" width="133" height="44" as="geometry" />
        </mxCell>
        <mxCell id="4VKB-QzmZBHexOsbxEIB-15" value="0:M" style="text;html=1;strokeColor=none;fillColor=none;align=center;verticalAlign=middle;whiteSpace=wrap;rounded=0;" vertex="1" parent="1">
          <mxGeometry x="-50" y="308" width="60" height="30" as="geometry" />
        </mxCell>
        <mxCell id="4VKB-QzmZBHexOsbxEIB-17" value="" style="endArrow=none;html=1;rounded=0;entryX=0.5;entryY=0;entryDx=0;entryDy=0;exitX=0;exitY=0.5;exitDx=0;exitDy=0;" edge="1" parent="1" source="4VKB-QzmZBHexOsbxEIB-12" target="4VKB-QzmZBHexOsbxEIB-12">
          <mxGeometry width="50" height="50" relative="1" as="geometry">
            <mxPoint x="243" y="503" as="sourcePoint" />
            <mxPoint x="293" y="453" as="targetPoint" />
          </mxGeometry>
        </mxCell>
        <mxCell id="4VKB-QzmZBHexOsbxEIB-18" value="" style="endArrow=none;html=1;rounded=0;entryX=0.5;entryY=1;entryDx=0;entryDy=0;exitX=0;exitY=0.5;exitDx=0;exitDy=0;" edge="1" parent="1" source="4VKB-QzmZBHexOsbxEIB-12" target="4VKB-QzmZBHexOsbxEIB-12">
          <mxGeometry width="50" height="50" relative="1" as="geometry">
            <mxPoint x="20" y="346" as="sourcePoint" />
            <mxPoint x="87" y="324" as="targetPoint" />
          </mxGeometry>
        </mxCell>
        <mxCell id="4VKB-QzmZBHexOsbxEIB-19" value="" style="endArrow=none;html=1;rounded=0;entryX=1;entryY=0.5;entryDx=0;entryDy=0;exitX=0.5;exitY=1;exitDx=0;exitDy=0;" edge="1" parent="1" source="4VKB-QzmZBHexOsbxEIB-12" target="4VKB-QzmZBHexOsbxEIB-12">
          <mxGeometry width="50" height="50" relative="1" as="geometry">
            <mxPoint x="20" y="346" as="sourcePoint" />
            <mxPoint x="87" y="368" as="targetPoint" />
          </mxGeometry>
        </mxCell>
        <mxCell id="4VKB-QzmZBHexOsbxEIB-20" value="" style="endArrow=none;html=1;rounded=0;entryX=0.5;entryY=0;entryDx=0;entryDy=0;exitX=1;exitY=0.5;exitDx=0;exitDy=0;" edge="1" parent="1" source="4VKB-QzmZBHexOsbxEIB-12" target="4VKB-QzmZBHexOsbxEIB-12">
          <mxGeometry width="50" height="50" relative="1" as="geometry">
            <mxPoint x="87" y="368" as="sourcePoint" />
            <mxPoint x="153" y="324" as="targetPoint" />
          </mxGeometry>
        </mxCell>
        <mxCell id="4VKB-QzmZBHexOsbxEIB-22" value="Datum" style="ellipse;whiteSpace=wrap;html=1;" vertex="1" parent="1">
          <mxGeometry x="-46" y="233" width="100" height="46" as="geometry" />
        </mxCell>
        <mxCell id="4VKB-QzmZBHexOsbxEIB-23" value="Vreme" style="ellipse;whiteSpace=wrap;html=1;" vertex="1" parent="1">
          <mxGeometry x="77" y="233" width="100" height="46" as="geometry" />
        </mxCell>
        <mxCell id="4VKB-QzmZBHexOsbxEIB-36" value="" style="edgeStyle=orthogonalEdgeStyle;rounded=0;orthogonalLoop=1;jettySize=auto;html=1;" edge="1" parent="1" source="4VKB-QzmZBHexOsbxEIB-24" target="4VKB-QzmZBHexOsbxEIB-28">
          <mxGeometry relative="1" as="geometry" />
        </mxCell>
        <mxCell id="4VKB-QzmZBHexOsbxEIB-46" value="" style="edgeStyle=orthogonalEdgeStyle;rounded=0;orthogonalLoop=1;jettySize=auto;html=1;" edge="1" parent="1" source="4VKB-QzmZBHexOsbxEIB-24" target="4VKB-QzmZBHexOsbxEIB-27">
          <mxGeometry relative="1" as="geometry" />
        </mxCell>
        <mxCell id="4VKB-QzmZBHexOsbxEIB-52" value="" style="edgeStyle=orthogonalEdgeStyle;rounded=0;orthogonalLoop=1;jettySize=auto;html=1;" edge="1" parent="1" source="4VKB-QzmZBHexOsbxEIB-24" target="4VKB-QzmZBHexOsbxEIB-29">
          <mxGeometry relative="1" as="geometry" />
        </mxCell>
        <mxCell id="4VKB-QzmZBHexOsbxEIB-24" value="Administrator" style="rounded=0;whiteSpace=wrap;html=1;" vertex="1" parent="1">
          <mxGeometry x="385" y="314" width="133" height="44" as="geometry" />
        </mxCell>
        <mxCell id="4VKB-QzmZBHexOsbxEIB-25" value="Korisnicko ime" style="ellipse;whiteSpace=wrap;html=1;" vertex="1" parent="1">
          <mxGeometry x="374" y="217" width="100" height="46" as="geometry" />
        </mxCell>
        <mxCell id="4VKB-QzmZBHexOsbxEIB-26" value="Lozinka" style="ellipse;whiteSpace=wrap;html=1;" vertex="1" parent="1">
          <mxGeometry x="494" y="219" width="100" height="46" as="geometry" />
        </mxCell>
        <mxCell id="4VKB-QzmZBHexOsbxEIB-27" value="Maser" style="rounded=0;whiteSpace=wrap;html=1;" vertex="1" parent="1">
          <mxGeometry x="385" y="530" width="133" height="44" as="geometry" />
        </mxCell>
        <mxCell id="4VKB-QzmZBHexOsbxEIB-28" value="Zalihe" style="rounded=0;whiteSpace=wrap;html=1;" vertex="1" parent="1">
          <mxGeometry x="579" y="314" width="133" height="44" as="geometry" />
        </mxCell>
        <mxCell id="4VKB-QzmZBHexOsbxEIB-29" value="TERMIIN" style="rounded=0;whiteSpace=wrap;html=1;" vertex="1" parent="1">
          <mxGeometry x="185" y="314" width="133" height="44" as="geometry" />
        </mxCell>
        <mxCell id="4VKB-QzmZBHexOsbxEIB-33" value="" style="endArrow=none;html=1;rounded=0;exitX=0.5;exitY=0;exitDx=0;exitDy=0;entryX=0.5;entryY=1;entryDx=0;entryDy=0;" edge="1" parent="1" source="4VKB-QzmZBHexOsbxEIB-24" target="4VKB-QzmZBHexOsbxEIB-25">
          <mxGeometry width="50" height="50" relative="1" as="geometry">
            <mxPoint x="361" y="499" as="sourcePoint" />
            <mxPoint x="411" y="449" as="targetPoint" />
          </mxGeometry>
        </mxCell>
        <mxCell id="4VKB-QzmZBHexOsbxEIB-34" value="" style="endArrow=none;html=1;rounded=0;exitX=0.5;exitY=1;exitDx=0;exitDy=0;entryX=0.5;entryY=0;entryDx=0;entryDy=0;" edge="1" parent="1" source="4VKB-QzmZBHexOsbxEIB-26" target="4VKB-QzmZBHexOsbxEIB-24">
          <mxGeometry width="50" height="50" relative="1" as="geometry">
            <mxPoint x="462" y="324" as="sourcePoint" />
            <mxPoint x="434" y="273" as="targetPoint" />
          </mxGeometry>
        </mxCell>
        <mxCell id="4VKB-QzmZBHexOsbxEIB-35" value="Usluga" style="rounded=0;whiteSpace=wrap;html=1;" vertex="1" parent="1">
          <mxGeometry x="134" y="589" width="133" height="44" as="geometry" />
        </mxCell>
        <mxCell id="4VKB-QzmZBHexOsbxEIB-37" value="Ime" style="ellipse;whiteSpace=wrap;html=1;" vertex="1" parent="1">
          <mxGeometry x="594" y="515" width="100" height="46" as="geometry" />
        </mxCell>
        <mxCell id="4VKB-QzmZBHexOsbxEIB-38" value="Prezime" style="ellipse;whiteSpace=wrap;html=1;" vertex="1" parent="1">
          <mxGeometry x="595.5" y="564" width="100" height="46" as="geometry" />
        </mxCell>
        <mxCell id="4VKB-QzmZBHexOsbxEIB-39" value="ID korisnika" style="ellipse;whiteSpace=wrap;html=1;" vertex="1" parent="1">
          <mxGeometry x="-386" y="191" width="100" height="46" as="geometry" />
        </mxCell>
        <mxCell id="4VKB-QzmZBHexOsbxEIB-42" value="" style="endArrow=none;html=1;rounded=0;entryX=1;entryY=1;entryDx=0;entryDy=0;exitX=0;exitY=0.5;exitDx=0;exitDy=0;" edge="1" parent="1" source="4VKB-QzmZBHexOsbxEIB-1" target="4VKB-QzmZBHexOsbxEIB-39">
          <mxGeometry width="50" height="50" relative="1" as="geometry">
            <mxPoint x="-316" y="503" as="sourcePoint" />
            <mxPoint x="-266" y="453" as="targetPoint" />
          </mxGeometry>
        </mxCell>
        <mxCell id="4VKB-QzmZBHexOsbxEIB-43" value="" style="endArrow=none;html=1;rounded=0;exitX=0;exitY=0.5;exitDx=0;exitDy=0;entryX=1;entryY=0.5;entryDx=0;entryDy=0;" edge="1" parent="1" source="4VKB-QzmZBHexOsbxEIB-37" target="4VKB-QzmZBHexOsbxEIB-27">
          <mxGeometry width="50" height="50" relative="1" as="geometry">
            <mxPoint x="554" y="349" as="sourcePoint" />
            <mxPoint x="462" y="398" as="targetPoint" />
          </mxGeometry>
        </mxCell>
        <mxCell id="4VKB-QzmZBHexOsbxEIB-44" value="" style="endArrow=none;html=1;rounded=0;exitX=0;exitY=0.5;exitDx=0;exitDy=0;entryX=1;entryY=0.5;entryDx=0;entryDy=0;" edge="1" parent="1" source="4VKB-QzmZBHexOsbxEIB-38" target="4VKB-QzmZBHexOsbxEIB-27">
          <mxGeometry width="50" height="50" relative="1" as="geometry">
            <mxPoint x="586" y="553" as="sourcePoint" />
            <mxPoint x="528" y="562" as="targetPoint" />
          </mxGeometry>
        </mxCell>
        <mxCell id="4VKB-QzmZBHexOsbxEIB-45" value="1:M" style="text;html=1;strokeColor=none;fillColor=none;align=center;verticalAlign=middle;whiteSpace=wrap;rounded=0;" vertex="1" parent="1">
          <mxGeometry x="519" y="302" width="60" height="30" as="geometry" />
        </mxCell>
        <mxCell id="4VKB-QzmZBHexOsbxEIB-47" value="1:M" style="text;html=1;strokeColor=none;fillColor=none;align=center;verticalAlign=middle;whiteSpace=wrap;rounded=0;" vertex="1" parent="1">
          <mxGeometry x="451" y="392" width="60" height="30" as="geometry" />
        </mxCell>
        <mxCell id="4VKB-QzmZBHexOsbxEIB-50" value="" style="endArrow=none;html=1;rounded=0;entryX=0.5;entryY=1;entryDx=0;entryDy=0;" edge="1" parent="1" target="4VKB-QzmZBHexOsbxEIB-22">
          <mxGeometry width="50" height="50" relative="1" as="geometry">
            <mxPoint x="78" y="316" as="sourcePoint" />
            <mxPoint x="-291" y="240" as="targetPoint" />
          </mxGeometry>
        </mxCell>
        <mxCell id="4VKB-QzmZBHexOsbxEIB-51" value="" style="endArrow=none;html=1;rounded=0;entryX=0.5;entryY=1;entryDx=0;entryDy=0;" edge="1" parent="1" target="4VKB-QzmZBHexOsbxEIB-23">
          <mxGeometry width="50" height="50" relative="1" as="geometry">
            <mxPoint x="77" y="314" as="sourcePoint" />
            <mxPoint x="14" y="289" as="targetPoint" />
          </mxGeometry>
        </mxCell>
      </root>
    </mxGraphModel>
  </diagram>
  <diagram id="KvDXQQwt86522MRic7i9" name="Page-2">
    <mxGraphModel dx="519" dy="611" grid="0" gridSize="10" guides="1" tooltips="1" connect="1" arrows="1" fold="1" page="0" pageScale="1" pageWidth="1100" pageHeight="850" math="0" shadow="0">
      <root>
        <mxCell id="0" />
        <mxCell id="1" parent="0" />
      </root>
    </mxGraphModel>
  </diagram>
</mxfile>
